<?xml version="1.0" encoding="UTF-8" standalone="no"?>
<!-- Generator: Adobe Illustrator 16.0.0, SVG Export Plug-In . SVG Version: 6.00 Build 0)  -->

<svg
   xmlns:dc="http://purl.org/dc/elements/1.1/"
   xmlns:cc="http://creativecommons.org/ns#"
   xmlns:rdf="http://www.w3.org/1999/02/22-rdf-syntax-ns#"
   xmlns:svg="http://www.w3.org/2000/svg"
   xmlns="http://www.w3.org/2000/svg"
   xmlns:sodipodi="http://sodipodi.sourceforge.net/DTD/sodipodi-0.dtd"
   xmlns:inkscape="http://www.inkscape.org/namespaces/inkscape"
   version="1.0"
   id="Layer_1"
   x="0px"
   y="0px"
   width="300px"
   height="300px"
   viewBox="-50 -50 400 400"
   xml:space="preserve"
   inkscape:version="0.91 r13725"
   sodipodi:docname="admin-box.svg"><metadata
     id="metadata4187"><rdf:RDF><cc:Work
         rdf:about=""><dc:format>image/svg+xml</dc:format><dc:type
           rdf:resource="http://purl.org/dc/dcmitype/StillImage" /><dc:title></dc:title></cc:Work></rdf:RDF></metadata><defs
     id="defs4185" /><sodipodi:namedview
     pagecolor="#ffffff"
     bordercolor="#666666"
     borderopacity="1"
     objecttolerance="10"
     gridtolerance="10"
     guidetolerance="10"
     inkscape:pageopacity="0"
     inkscape:pageshadow="2"
     inkscape:window-width="1188"
     inkscape:window-height="726"
     id="namedview4183"
     showgrid="false"
     inkscape:zoom="1.2"
     inkscape:cx="116.36213"
     inkscape:cy="150"
     inkscape:window-x="2212"
     inkscape:window-y="94"
     inkscape:window-maximized="0"
     inkscape:current-layer="Layer_1" /><path
     d="m 152.53856,-33.795489 a 13.523278,13.523278 0 0 0 -6.84739,1.702245 L 28.497955,33.086661 A 13.523278,13.523278 0 1 0 41.642938,56.718817 L 152.16402,-4.74928 271.46764,63.609429 151.34771,131.49035 8.0085897,48.747797 A 13.523278,13.523278 0 0 0 -12.274297,60.459435 l 0,174.399705 a 13.523278,13.523278 0 0 0 6.7609623,11.71163 L 145.5039,333.75502 a 13.523278,13.523278 0 0 0 13.67798,-0.0912 l 146.45551,-87.18424 a 13.523278,13.523278 0 0 0 6.60491,-11.6204 l 0,-137.809838 A 13.523278,13.523278 0 0 0 292.02424,85.301711 L 145.56633,168.80769 a 13.523278,13.523278 0 0 0 -6.82338,11.74765 l 0,105.2559 a 13.523278,13.523278 0 1 0 27.04384,0 l 0,-97.40012 119.41165,-68.085 0,106.84769 -133.03922,79.19643 -137.389668,-79.31646 0,-143.175869 129.747578,74.893989 a 13.523278,13.523278 0 0 0 1.16685,0.59782 13.523278,13.523278 0 0 0 1.11882,0.44417 13.523278,13.523278 0 0 0 0.14165,0.0552 13.523278,13.523278 0 0 0 0.97957,0.27611 13.523278,13.523278 0 0 0 0.32892,0.0937 13.523278,13.523278 0 0 0 0.72508,0.12965 13.523278,13.523278 0 0 0 0.61704,0.10799 13.523278,13.523278 0 0 0 0.95554,0.072 13.523278,13.523278 0 0 0 0.36734,0.0288 13.523278,13.523278 0 0 0 0.01,0 13.523278,13.523278 0 0 0 0.35052,0.005 13.523278,13.523278 0 0 0 1.34932,-0.0672 13.523278,13.523278 0 0 0 1.33731,-0.20167 13.523278,13.523278 0 0 0 3.9639,-1.47897 L 305.46213,75.465122 a 13.523278,13.523278 0 0 0 0.0695,-23.504908 L 158.98741,-32.009212 a 13.523278,13.523278 0 0 0 -6.44885,-1.786277 z"
     id="path4181"
     inkscape:connector-curvature="0" /></svg>
